<svg width="92" height="18" viewBox="0 0 92 18" fill="none" xmlns="http://www.w3.org/2000/svg">
<path d="M11.2309 11.3381C11.2275 11.6354 11.0874 14.4928 7.39159 14.4928C3.75182 14.4928 3.6138 11.6354 3.61175 11.3409V1.22988H4.70498V10.6316C4.70498 11.7467 5.16619 13.4453 7.39159 13.4453C9.66277 13.4453 10.137 11.7467 10.137 10.6316V0H8.90707V10.633C8.95803 11.0541 8.81758 11.4759 8.52433 11.7824C8.23107 12.0889 7.8159 12.2478 7.39295 12.2155C6.97649 12.2412 6.5706 12.0779 6.288 11.7709C6.00539 11.4639 5.87618 11.0459 5.93623 10.633V0H2.38324V11.5998C2.38324 11.6415 2.43995 15.7275 7.395 15.7275C12.4075 15.7275 12.4662 11.6415 12.4662 11.5998V1.22988H13.5594V12.0255C13.5594 12.2141 13.3251 16.7674 7.39432 16.7674C1.46356 16.7674 1.23056 12.2141 1.22988 12.0276V0H0V12.1574C0 12.2161 0.209763 18 7.395 18C14.5802 18 14.7907 12.2161 14.7907 12.1574V0H11.2343L11.2309 11.3381Z" fill="white"/>
<path d="M28.8796 4.94135V9.75018C28.8796 10.8981 28.5721 11.759 27.9572 12.3329C27.3504 12.8987 26.4485 13.1816 25.2514 13.1816C24.0626 13.1816 23.1606 12.8987 22.5457 12.3329C21.9308 11.759 21.6233 10.8981 21.6233 9.75018V4.94135H23.751V9.78708C23.751 10.3692 23.874 10.8038 24.12 11.0908C24.3741 11.3777 24.7513 11.5212 25.2514 11.5212C25.7598 11.5212 26.137 11.3777 26.3829 11.0908C26.6371 10.8038 26.7642 10.3692 26.7642 9.78708V4.94135H28.8796Z" fill="white"/>
<path d="M32.6302 11.4228H36.7012V13.0586H30.5149V4.94135H32.6302V11.4228Z" fill="white"/>
<path d="M45.2926 13.0586H43.1158L42.55 11.226H39.7705L39.1924 13.0586H37.0647L39.9181 4.94135H42.4516L45.2926 13.0586ZM40.164 9.78708H42.1565L41.1602 6.5033L40.164 9.78708Z" fill="white"/>
<path d="M55.633 4.94135V13.0586H53.7636V9.33202L53.825 6.83536H53.8004L51.7957 13.0586H50.0862L48.0815 6.83536H48.0569L48.1184 9.33202V13.0586H46.2367V4.94135H49.2499L50.529 9.07375L50.984 10.7956H51.0086L51.476 9.08605L52.7428 4.94135H55.633Z" fill="white"/>
<path d="M63.065 11.4228H67.1359V13.0586H60.9496V4.94135H63.065V11.4228Z" fill="white"/>
<path d="M75.7274 13.0586H73.5505L72.9848 11.226H70.2052L69.6272 13.0586H67.4995L70.3528 4.94135H72.8864L75.7274 13.0586ZM70.5988 9.78708H72.5912L71.595 6.5033L70.5988 9.78708Z" fill="white"/>
<path d="M76.6714 13.0586V4.94135H80.6194C81.6197 4.94955 82.3576 5.14223 82.8331 5.51939C83.3087 5.88836 83.5465 6.4254 83.5465 7.13054C83.5465 7.58969 83.4112 7.98735 83.1406 8.32352C82.87 8.65149 82.456 8.86057 81.8984 8.95076V8.96306C82.5216 9.04505 82.9848 9.26233 83.2882 9.6149C83.5998 9.95926 83.7556 10.3774 83.7556 10.8694C83.7556 11.5663 83.5096 12.1075 83.0176 12.4928C82.5257 12.87 81.7877 13.0586 80.8038 13.0586H76.6714ZM78.713 11.5704H80.4472C80.8325 11.5704 81.1195 11.4925 81.3081 11.3367C81.4967 11.1809 81.591 10.9555 81.591 10.6603C81.591 10.3733 81.4967 10.156 81.3081 10.0085C81.1195 9.85267 80.8325 9.77478 80.4472 9.77478H78.713V11.5704ZM78.713 8.26203H80.2504C81.0047 8.26203 81.3819 7.96686 81.3819 7.37651C81.3819 6.78617 81.0047 6.491 80.2504 6.491H78.713V8.26203Z" fill="white"/>
<path d="M88.2519 4.81836C89.0063 4.81836 89.6704 4.93725 90.2443 5.17502C90.8265 5.4046 91.3307 5.74487 91.7571 6.19583L90.7363 7.56099C90.3837 7.19203 90.0025 6.91736 89.5925 6.73697C89.1907 6.54839 88.7316 6.4541 88.215 6.4541C87.9117 6.4541 87.6657 6.4869 87.4771 6.55249C87.2885 6.61809 87.1532 6.70828 87.0712 6.82307C86.9893 6.93786 86.9482 7.06904 86.9482 7.21663C86.9482 7.38881 87.0261 7.5364 87.1819 7.65939C87.3459 7.77417 87.6083 7.87257 87.9691 7.95456L89.3342 8.26203C90.1459 8.45061 90.7404 8.72528 91.1175 9.08605C91.4947 9.44681 91.6833 9.92647 91.6833 10.525C91.6833 11.099 91.5357 11.5868 91.2405 11.9886C90.9454 12.3821 90.5395 12.6814 90.023 12.8864C89.5064 13.0832 88.9161 13.1816 88.2519 13.1816C87.7108 13.1816 87.1942 13.1242 86.7023 13.0094C86.2103 12.8864 85.7676 12.7142 85.374 12.4928C84.9804 12.2714 84.6484 12.0173 84.3778 11.7303L85.3986 10.3159C85.6036 10.5537 85.8537 10.7669 86.1488 10.9555C86.4522 11.1359 86.7802 11.2793 87.1327 11.3859C87.4935 11.4925 87.8584 11.5458 88.2273 11.5458C88.5143 11.5458 88.7521 11.5171 88.9407 11.4597C89.1374 11.4023 89.2809 11.3162 89.3711 11.2014C89.4613 11.0867 89.5064 10.9514 89.5064 10.7956C89.5064 10.6234 89.4449 10.4799 89.3219 10.3651C89.1989 10.2421 88.9653 10.1396 88.6209 10.0577L87.1204 9.72559C86.6613 9.619 86.2513 9.47961 85.8905 9.30743C85.538 9.12704 85.2592 8.88927 85.0542 8.5941C84.8493 8.29072 84.7468 7.91356 84.7468 7.4626C84.7468 6.95425 84.8862 6.5033 85.1649 6.10974C85.4437 5.70797 85.8455 5.3923 86.3702 5.16273C86.895 4.93315 87.5222 4.81836 88.2519 4.81836Z" fill="white"/>
</svg>
